# xmcd
#
# Track frame offsets: 
#        183
#        16545
#        31825
#        48713
#        66113
#        82460
#        98820
#        111590
#        128528
#        140268
#        158805
#        173918
#        191283
#
# Disc length: 2904 seconds
#
# Revision: 2
# Processed by: cddbd v1.4PL0 Copyright (c) Steve Scherf et al.
# Submitted via: ExactAudioCopy v0.90b4
#
DISCID=a80b560d
DTITLE=Southern Pacific - Greatest Hits
DYEAR=1991
DGENRE=Country
TTITLE0=Any Way the Wind Blows
TTITLE1=Reno Bound
TTITLE2=New Shade of Blue
TTITLE3=Thing About You
TTITLE4=All Is Lost
TTITLE5=A Girl Like Emmylou
TTITLE6=Honey I Dare You
TTITLE7=Midnight Highway
TTITLE8=I Go To Pieces
TTITLE9=Perfect Stranger
TTITLE10=Time's Up
TTITLE11=Trail of Tears
TTITLE12=Pink Cadillac
EXTD=
EXTT0=
EXTT1=
EXTT2=
EXTT3=
EXTT4=
EXTT5=
EXTT6=
EXTT7=
EXTT8=
EXTT9=
EXTT10=
EXTT11=
EXTT12=
PLAYORDER=
